<svg class="cv-logo" viewBox="0 0 220.7 127.3" xmlns="http://www.w3.org/2000/svg">
  <title>MIT Sloan</title>

  <g transform="matrix(2.3568 0 0 2.3568 181.704 -786.585)">
    
    <g transform="matrix(1.25 0 0 -1.25 -34.637 334.6)">
      <path fill="#858889" d="m0 0v-23.916h3.691l.957 0h2.5L7.148 0H0z" />
    </g>

    <g transform="matrix(1.25 0 0 -1.25 -24.899 334.6)">
      <path fill="#4d5054" d="m0 0v-5.904h2.949V-23.916h7.505v18.012h8.1V0H0z" />
    </g>

    <g transform="matrix(1.25 0 0 -1.25 -155.924 492.194)">
      
      <g fill="#4d5054">
        <path transform="translate(86.657,88.403)" d="m0 0-.561-.332c-.104.182-.205.301-.299.356-.099.064-.227.095-.383.095-.192 0-.352-.054-.478-.163-.126-.107-.19-.241-.19-.404 0-.224.166-.404.498-.541l.457-.187c.372-.15.644-.334.816-.551.173-.216.259-.482.259-.796 0-.422-.141-.77-.421-1.045-.284-.278-.635-.416-1.054-.416-.397 0-.726.118-.985.355-.255.236-.414.567-.478.995l.7.154c.032-.269.087-.455.167-.558.142-.197.35-.297.623-.297.215 0 .395.073.537.217.142.144.214.327.214.548 0 .089-.013.171-.038.245-.024.074-.063.143-.116.204-.052.063-.119.121-.202.175-.084.055-.183.106-.298.156l-.441.184c-.628.265-.941.652-.941 1.162 0 .344.131.631.394.863.264.233.591.349.983.349C-.709.768-.297.513 0 0"/>
        <path transform="translate(91.532,86.805)" d="m0 0c0-.506.17-.922.51-1.248.339-.326.729-.489 1.172-.489.481 0 .886.166 1.216.499.331.335.496.744.496 1.227 0 .488-.163.897-.489 1.226C2.58 1.548 2.179 1.714 1.7 1.714 1.224 1.714.821 1.548.493 1.215.164.888 0 .483 0 0m-.697.007c0 .646.236 1.199.709 1.662.471.463 1.036.695 1.697.695.653 0 1.212-.234 1.679-.701.469-.466.703-1.027.703-1.682 0-.659-.235-1.218-.706-1.677-.472-.461-1.043-.691-1.712-.691-.591 0-1.122.205-1.593.615-.518.452-.777 1.046-.777 1.779"/>
        <path transform="translate(99.084,86.264)" d="M0 0-.679 1.558-1.391 0H0zm.282-.65-1.961 0-.51-1.112-.745 0 2.267 4.869 2.187-4.869-.757 0-.481 1.112z"/>
        <path transform="translate(101.589,84.502)" d="m0 0 0 4.893 3.341-3.496 0 3.184.692 0 0-4.86L.691 3.208.691 0 0 0Z"/>
        <path transform="translate(112.012,88.403)" d="m0 0-.561-.332c-.105.182-.205.301-.3.356-.098.064-.227.095-.383.095-.191 0-.351-.054-.477-.163-.127-.107-.19-.241-.19-.404 0-.224.166-.404.498-.541l.458-.187c.371-.15.643-.334.815-.551.172-.216.258-.482.258-.796 0-.422-.14-.77-.421-1.045-.283-.278-.634-.416-1.054-.416-.397 0-.726.118-.984.355-.256.236-.415.567-.478.995l.7.154c.032-.269.087-.455.166-.558.142-.197.351-.297.624-.297.215 0 .394.073.536.217.143.144.214.327.214.548 0 .089-.013.171-.037.245-.025.074-.063.143-.116.204-.052.063-.12.121-.203.175-.083.055-.182.106-.296.156l-.444.184c-.626.265-.94.652-.94 1.162 0 .344.132.631.395.863.263.233.59.349.982.349C-.71.768-.297.513 0 0"/>
        <path transform="translate(116.715,88.838)" d="m0 0 0-.817c-.398.335-.812.501-1.24.501-.47 0-.867-.168-1.19-.507-.324-.336-.486-.748-.486-1.234 0-.482.162-.886.486-1.216.325-.331.723-.497 1.193-.497.244 0 .45.04.62.119.095.04.194.093.296.161.102.067.209.148.321.243l0-.835c-.395-.225-.81-.337-1.245-.337-.655 0-1.214.228-1.677.685-.461.461-.692 1.018-.692 1.667 0 .584.194 1.104.58 1.562.474.559 1.089.838 1.842.838C-.781.333-.383.223 0 0"/>
        <path transform="translate(118.82,87.291)" d="m0 0 1.976 0 0 1.792.692 0 0-4.581-.692 0 0 2.139-1.976 0 0-2.139-.692 0 0 4.581L0 1.792 0 0Z"/>
        <path transform="translate(123.419,86.805)" d="m0 0c0-.506.17-.922.51-1.248.338-.326.729-.489 1.173-.489.48 0 .886.166 1.215.499.331.335.496.744.496 1.227 0 .488-.163.897-.489 1.226C2.58 1.548 2.179 1.714 1.7 1.714 1.223 1.714.82 1.548.492 1.215.164.888 0 .483 0 0m-.698.007c0 .646.237 1.199.71 1.662.47.463 1.036.695 1.697.695.652 0 1.213-.234 1.679-.701.468-.466.703-1.027.703-1.682 0-.659-.235-1.218-.706-1.677-.473-.461-1.043-.691-1.712-.691-.591 0-1.122.205-1.593.615-.518.452-.778 1.046-.778 1.779"/>
        <path transform="translate(129.213,86.805)" d="m0 0c0-.506.17-.922.51-1.248.338-.326.729-.489 1.173-.489.48 0 .886.166 1.216.499.331.335.496.744.496 1.227 0 .488-.163.897-.49 1.226C2.58 1.548 2.179 1.714 1.7 1.714 1.224 1.714.82 1.548.493 1.215.165.888 0 .483 0 0m-.697.007c0 .646.236 1.199.709 1.662.471.463 1.037.695 1.697.695.653 0 1.213-.234 1.679-.701.469-.466.703-1.027.703-1.682 0-.659-.235-1.218-.705-1.677-.474-.461-1.043-.691-1.712-.691-.592 0-1.123.205-1.594.615-.518.452-.777 1.046-.777 1.779"/>
        <path transform="translate(135.256,89.083)" d="m0 0 0-3.931 1.544 0 0-.65-2.236 0 0 4.581L0 0Z"/>
        <path transform="translate(88.641,89.083)" d="m0 0 0-3.931 1.544 0 0-.65-2.236 0 0 4.581L0 0Z"/>
        <path transform="translate(65.537,99.384)" d="M0 0 1.801 0 3.23-3.762 4.743 0l1.82 0 1.289-7.038-1.982 0-.586 4.051-.019 0-1.689-4.051-.729 0-1.615 4.051-.018 0-.66-4.051-1.853 0L0 0Z"/>
        <path transform="translate(77.446,97.209)" d="m0 0-.019 0-.756-2.24 1.521 0L0 0Zm-1.28-3.64-.485-1.223-1.942 0 2.708 7.038 1.998 0 2.65-7.038-1.951 0-.457 1.223-2.521 0Z"/>
        <path transform="translate(81.631,99.384)" d="m0 0 1.829 0 3.351-4.303.019 0 0 4.303 1.83 0 0-7.038-1.83 0-3.351 4.313-.019 0 0-4.313L0-7.038 0 0Z"/>
        <path transform="translate(92.902,97.209)" d="m0 0-.019 0-.756-2.24 1.523 0L0 0Zm-1.278-3.64-.486-1.223-1.942 0 2.707 7.038 1.998 0 2.651-7.038-1.95 0-.458 1.223-2.52 0Z"/>
        <path transform="translate(103.86,96.276)" d="m0 0c-.019-1.027-.093-1.904-.719-2.782-.691-.961-1.728-1.382-2.903-1.382-2.213 0-3.753 1.503-3.753 3.716 0 2.287 1.55 3.79 3.818 3.79 1.447 0 2.567-.654 3.174-1.97L-2.119.644c-.252.672-.785 1.12-1.523 1.12-1.203 0-1.829-1.148-1.829-2.222 0-1.092.654-2.203 1.858-2.203.793 0 1.4.411 1.475 1.223l-1.493 0 0 1.438L0 0Z"/>
        <path transform="translate(106.545,97.835)" d="m0 0 0-1.175 2.063 0 0-1.551-2.063 0 0-1.213 2.175 0 0-1.55-4.004 0 0 7.038 4.004 0L2.175 0 0 0Z"/>
        <path transform="translate(121.028,97.835)" d="m0 0 0-1.175 2.063 0 0-1.551-2.063 0 0-1.213 2.175 0 0-1.55-4.005 0 0 7.038 4.005 0L2.175 0 0 0Z"/>
        <path transform="translate(124.337,99.384)" d="m0 0 1.83 0 3.351-4.303.019 0 0 4.303 1.83 0 0-7.038-1.83 0-3.351 4.313-.019 0 0-4.313-1.83 0L0 0Z"/>
        <path transform="translate(135.288,92.346)" d="m0 0-1.83 0 0 5.489-1.512 0 0 1.549 4.854 0 0-1.549L0 5.489 0 0Z"/>
        <path transform="translate(110.682,99.385)" d="M0 0 1.802 0 3.23-3.762 4.743 0l1.819 0 1.289-7.038-1.981 0-.586 4.051-.019 0-1.689-4.051-.729 0-1.615 4.051-.018 0-.66-4.051-1.853 0L0 0Z"/>
      </g>
      
      <path transform="translate(96.387,114.118)" fill="#a31934" d="m0 0-.096.513-2.13 11.444-7.157 0-4.851-11.616-4.851 11.616-7.191 0-4.447-23.915 7.134 0 2.29 12.251 5.372-12.251 3.387 0 5.345 12.251 2.274-12.251 2.498 0 2.423 0L0 0Z"/>
    </g>
  </g>
</svg>
