<svg class="cv-logo" viewBox="64 78 75 50" xmlns="http://www.w3.org/2000/svg">
  <title>MIT Sloan</title>
  
  <g fill="#4d5054">
    <path transform="translate(86.7,88.4)" d="m0 0-.56-.33c-.1.18-.2.3-.3.36-.1.06-.23.09-.38.09-.19 0-.35-.06-.48-.17-.13-.1-.19-.24-.19-.4 0-.23.17-.4.5-.55l.46-.18c.37-.15.64-.34.82-.55.17-.22.26-.49.26-.8 0-.42-.14-.77-.42-1.04-.29-.28-.64-.42-1.06-.42-.4 0-.72.12-.98.36-.26.23-.42.56-.48 1l.7.15c.03-.27.09-.45.17-.56.14-.2.35-.3.62-.3.22 0 .4.08.54.22.14.15.21.33.21.55 0 .09-.01.17-.04.25-.02.07-.06.14-.11.2-.05.07-.12.13-.2.18-.09.05-.19.1-.3.15l-.45.19c-.62.26-.94.65-.94 1.16 0 .34.13.63.4.86.26.23.59.35.98.35.26 0 .67-.25.96-.77"/>
    <path transform="translate(91.5,86.8)" d="m0 0c0-.5.17-.92.5-1.25.34-.32.73-.49 1.18-.49.48 0 .88.17 1.2.5.34.33.5.74.5 1.22 0 .49-.16.9-.49 1.23-.33.32-.73.49-1.2.49-.48 0-.89-.17-1.21-.5C.16.89 0 .48 0 0m-.7 0c0 .65.24 1.2.7 1.66.48.47 1.04.7 1.7.7.65 0 1.21-.24 1.68-.7.47-.47.7-1.03.7-1.69 0-.66-.23-1.22-.7-1.67-.48-.46-1.05-.7-1.72-.7-.59 0-1.12.2-1.6.61-.51.46-.77 1.05-.77 1.78"/>
    <path transform="translate(99.1,86.3)" d="M0 0-.68 1.56-1.4 0H0zm.28-.65-1.96 0-.5-1.1-1.23 1.1 2.27 4.87L1 -.65h-.76l-.48 1.11z"/>
    <path transform="translate(101.6,84.5)" d="m0 0v4.9l3.34-3.5v3.18h.7V-.28L.7 3.2V0H0z"/>
    <path transform="translate(112,88.4)" d="m0 0-.56-.33c-.1.18-.2.3-.3.36-.1.06-.23.09-.38.09-.19 0-.35-.06-.48-.17-.13-.1-.19-.24-.19-.4 0-.23.17-.4.5-.55l.46-.18c.37-.15.64-.34.82-.55.17-.22.26-.49.26-.8 0-.42-.14-.77-.42-1.04-.29-.28-.64-.42-1.06-.42-.4 0-.72.12-.98.36-.26.23-.42.56-.48 1l.7.15c.03-.27.09-.45.17-.56.14-.2.35-.3.62-.3.22 0 .4.08.54.22.14.15.21.33.21.55 0 .09-.01.17-.04.25-.02.07-.06.14-.11.2-.05.07-.12.13-.2.18-.09.05-.19.1-.3.15l-.45.19c-.62.26-.94.65-.94 1.16 0 .34.13.63.4.86.26.23.59.35.98.35.26 0 .67-.25.96-.77"/>
    <path transform="translate(116.7,88.8)" d="m0 0v-.82c-.4.34-.81.5-1.24.5-.47 0-.87-.17-1.19-.5-.32-.34-.49-.75-.49-1.24 0-.48.16-.88.49-1.2.32-.34.72-.5 1.2-.5.24 0 .45.04.62.12.1.04.19.09.3.16.1.07.2.15.32.24V-4.08c-.4-.22-.81-.33-1.25-.33-.65 0-1.21.23-1.67.68-.46.46-.7 1.02-.7 1.67 0 .58.2 1.1.58 1.56.47.56 1.09.84 1.84.84.54 0 .94-.1 1.39-.34"/>
    <path transform="translate(118.8,87.3)" d="m0 0 1.98 0v1.8h.69V-2.8h-.7v2.14H0v-2.14h-.7v4.58L0 1.8V0z"/>
    <path transform="translate(123.4,86.8)" d="m0 0c0-.5.17-.92.5-1.25.34-.32.73-.49 1.18-.49.48 0 .88.17 1.2.5.34.33.5.74.5 1.22 0 .49-.16.9-.49 1.23-.33.32-.73.49-1.2.49-.48 0-.89-.17-1.21-.5C.16.89 0 .48 0 0m-.7 0c0 .65.24 1.2.7 1.66.48.47 1.04.7 1.7.7.65 0 1.21-.24 1.68-.7.47-.47.7-1.03.7-1.69 0-.66-.23-1.22-.7-1.67-.48-.46-1.05-.7-1.72-.7-.59 0-1.12.2-1.6.61-.51.46-.77 1.05-.77 1.78"/>
    <path transform="translate(129.2,86.8)" d="m0 0c0-.5.17-.92.5-1.25.34-.32.73-.49 1.18-.49.48 0 .88.17 1.2.5.34.33.5.74.5 1.22 0 .49-.16.9-.49 1.23-.33.32-.73.49-1.2.49-.48 0-.89-.17-1.21-.5C.16.89 0 .48 0 0m-.7 0c0 .65.24 1.2.7 1.66.48.47 1.04.7 1.7.7.65 0 1.21-.24 1.68-.7.47-.47.7-1.03.7-1.69 0-.66-.23-1.22-.7-1.67-.48-.46-1.05-.7-1.72-.7-.59 0-1.12.2-1.6.61-.51.46-.77 1.05-.77 1.78"/>
    <path transform="translate(135.3,89.1)" d="m0 0v-3.93h1.54v-.65h-2.24v4.58L0 0z"/>
    <path transform="translate(88.6,89.1)" d="m0 0v-3.93h1.54v-.65h-2.24v4.58L0 0z"/>
    <path transform="translate(65.5,99.4)" d="M0 0 1.8 0 3.23-3.76 4.74 0h1.82l1.29-7.04-1.98 0-.59 4.05h-.02l-1.69-4.05h-.73L1.24 1.06h-.02L.56-3h-1.85L0 0z"/>
    <path transform="translate(77.4,97.2)" d="m0 0-.02 0-.76-2.24 1.52 0L0 0zm-1.28-3.64-.49-1.22-1.94 0 2.7 7.04 2 0 2.65-7.04-1.95 0-.46 1.22-2.52 0z"/>
    <path transform="translate(81.6,99.4)" d="m0 0 1.83 0 3.35-4.3h.02V0h1.83v-7.04h-1.83l-3.35 4.3h-.02v-4.3l-1.83 0L0 0z"/>
    <path transform="translate(92.9,97.2)" d="m0 0-.02 0-.76-2.24 1.52 0L0 0zm-1.28-3.64-.49-1.22-1.94 0 2.7 7.04 2 0 2.65-7.04-1.95 0-.46 1.22-2.52 0z"/>
    <path transform="translate(103.9,96.3)" d="m0 0c-.02-1.03-.1-1.9-.72-2.78-.69-.96-1.73-1.38-2.9-1.38-2.21 0-3.75 1.5-3.75 3.72 0 2.29 1.55 3.79 3.82 3.79 1.45 0 2.57-.65 3.17-1.97L-2.12.64c-.25.67-.78 1.12-1.52 1.12-1.2 0-1.83-1.15-1.83-2.22 0-1.09.65-2.2 1.86-2.2.79 0 1.4.4 1.48 1.22l-1.5 0v1.44L0 0z"/>
    <path transform="translate(106.5,97.8)" d="m0 0v-1.18h2.06v-1.55H0v-1.2h2.18v-1.56h-4v7.04h4L2.18 0H0z"/>
    <path transform="translate(121,97.8)" d="m0 0v-1.18h2.06v-1.55H0v-1.2h2.18v-1.56h-4v7.04h4L2.18 0H0z"/>
    <path transform="translate(124.3,99.4)" d="m0 0 1.83 0 3.35-4.3h.02V0h1.83v-7.04h-1.83l-3.35 4.3h-.02v-4.3l-1.83 0L0 0z"/>
    <path transform="translate(135.3,92.3)" d="m0 0-1.83 0v5.49h-1.51v1.55h4.85v-1.55L0 5.49 0 0z"/>
    <path transform="translate(110.7,99.4)" d="M0 0 1.8 0 3.23-3.76 4.74 0h1.82l1.29-7.04-1.98 0-.59 4.05h-.02l-1.69-4.05h-.73L1.24 1.06h-.02L.56-3h-1.85L0 0z"/>
  </g>
  
  <path fill="#a31934" transform="translate(96.4,114.1)" d="m0 0-.1.5-2.13 11.45-7.16 0-4.85-11.62-4.85 11.62-7.19 0-4.45-23.92 7.13 0 2.29 12.25 5.37-12.25h3.39l5.34 12.25 2.27-12.25h2.5l2.42 0L0 0z"/>
</svg>
